<?xml version="1.0" encoding="UTF-8" standalone="no"?>
<svg
   xmlns:dc="http://purl.org/dc/elements/1.1/"
   xmlns:cc="http://creativecommons.org/ns#"
   xmlns:rdf="http://www.w3.org/1999/02/22-rdf-syntax-ns#"
   xmlns:svg="http://www.w3.org/2000/svg"
   xmlns="http://www.w3.org/2000/svg"
   xmlns:sodipodi="http://sodipodi.sourceforge.net/DTD/sodipodi-0.dtd"
   xmlns:inkscape="http://www.inkscape.org/namespaces/inkscape"
   xml:space="preserve"
   width="1920"
   height="1000"
   id="svg2"
   version="1.1"
   inkscape:version="0.48.4 r9939"
   sodipodi:docname="PianoKeyboard.svg"><g
     id="g3544"
     transform="matrix(5.045247,0,0,5.045247,567.70806,-793.1846)"><rect
       id="rect4"
       height="120"
       width="23"
       y="180"
       x="0"
       style="fill:#ffffff;stroke:#000000" /><rect
       id="rect6"
       height="120"
       width="23"
       y="180"
       x="23"
       style="fill:#ffffff;stroke:#000000" /><rect
       id="rect8"
       height="120"
       width="23"
       y="180"
       x="46"
       style="fill:#ffffff;stroke:#000000" /><rect
       id="rect10"
       height="120"
       width="23"
       y="180"
       x="69"
       style="fill:#ffffff;stroke:#000000" /><rect
       id="rect12"
       height="120"
       width="23"
       y="180"
       x="92"
       style="fill:#ffffff;stroke:#000000" /><rect
       id="rect14"
       height="120"
       width="23"
       y="180"
       x="115"
       style="fill:#ffffff;stroke:#000000" /><rect
       id="rect16"
       height="120"
       width="23"
       y="180"
       x="138"
       style="fill:#ffffff;stroke:#000000" /><rect
       id="rect18"
       height="80"
       width="13"
       y="180"
       x="14.33333"
       style="fill:#000000;stroke:#000000" /><rect
       id="rect20"
       height="80"
       width="13"
       y="180"
       x="41.66666"
       style="fill:#000000;stroke:#000000" /><rect
       id="rect22"
       height="80"
       width="13"
       y="180"
       x="82.25"
       style="fill:#000000;stroke:#000000" /><rect
       id="rect24"
       height="80"
       width="13"
       y="180"
       x="108.25"
       style="fill:#000000;stroke:#000000" /><rect
       id="rect26"
       height="80"
       width="13"
       y="180"
       x="134.75"
       style="fill:#000000;stroke:#000000" /></g><path
     sodipodi:nodetypes="ccc"
     inkscape:connector-curvature="0"
     id="path4093"
     d="m 747.74039,635.62876 0,166.79319 -281.96634,0"
     style="fill:none;stroke:#000000;stroke-width:8.22716713;stroke-linecap:butt;stroke-linejoin:miter;stroke-miterlimit:4;stroke-opacity:1;stroke-dasharray:none;marker-start:url(#DotM-1);marker-end:none" /><metadata
     id="metadata32"><rdf:RDF><cc:Work
         rdf:about=""><dc:format>image/svg+xml</dc:format><dc:type
           rdf:resource="http://purl.org/dc/dcmitype/StillImage" /></cc:Work></rdf:RDF></metadata><defs
     id="defs30"><marker
       inkscape:stockid="DotM"
       orient="auto"
       refY="0"
       refX="0"
       id="DotM-1"
       style="overflow:visible"><path
         inkscape:connector-curvature="0"
         id="path4711-7"
         d="m -2.5,-1 c 0,2.76 -2.24,5 -5,5 -2.76,0 -5,-2.24 -5,-5 0,-2.76 2.24,-5 5,-5 2.76,0 5,2.24 5,5 z"
         style="fill-rule:evenodd;stroke:#000000;stroke-width:1pt"
         transform="matrix(0.4,0,0,0.4,2.96,0.4)" /></marker></defs><sodipodi:namedview
     pagecolor="#ffffff"
     bordercolor="#666666"
     borderopacity="1"
     objecttolerance="10"
     gridtolerance="10"
     guidetolerance="10"
     inkscape:pageopacity="0"
     inkscape:pageshadow="2"
     inkscape:window-width="1024"
     inkscape:window-height="559"
     id="namedview28"
     showgrid="false"
     showguides="true"
     inkscape:guide-bbox="true"
     inkscape:zoom="0.3700655"
     inkscape:cx="1091.7729"
     inkscape:cy="480.83261"
     inkscape:window-x="0"
     inkscape:window-y="20"
     inkscape:window-maximized="1"
     inkscape:current-layer="svg2"><sodipodi:guide
       orientation="0,1"
       position="862.00956,324.26692"
       id="guide4097" /></sodipodi:namedview><!-- 
     Copyright (c)  2005 Lauri Kaila.
     Permission is granted to copy, distribute and/or modify this document
     under the terms of the GNU Free Documentation License, Version 1.2
     or any later version published by the Free Software Foundation;
     with no Invariant Sections, no Front-Cover Texts, and no Back-Cover Texts.
     A copy of the license is included in the section entitled "GNU
     Free Documentation License".
     
     
     
     Intented to create a keyboard where key widths are
     accurately in position. 
     
     See http://www.mathpages.com/home/kmath043.htm
     for the math.
     
     This keyboard has following properties (x=octave width).
     1. All white keys have equal width in front (W=x/7).
     2. All black keys have equal width (B=x/12).
     3. The narrow part of white keys C, D and E is W - B*2/3
     4. The narrow part of white keys F, G, A, and B is W - B*3/4
     
--><!-- White keys  --><!-- Black keys (overlap with the white keys) --><g
     id="g6673"
     transform="matrix(1.1753096,0,0,1.1753096,659.15621,-822.62969)"><rect
       rx="7.554328"
       ry="9.7558298"
       y="835.05811"
       x="694.21216"
       height="90.6297"
       width="253.81186"
       id="rect3010-1-7-7-7"
       style="fill:#efefef;fill-opacity:1;stroke:#777777;stroke-width:2.24330425;stroke-linejoin:miter;stroke-miterlimit:4;stroke-opacity:1;stroke-dasharray:none" /><text
       sodipodi:linespacing="125%"
       id="text3878-7-6-9-9"
       y="893.59277"
       x="799.57043"
       style="font-size:36.89800644px;font-style:normal;font-weight:normal;line-height:125%;letter-spacing:0px;word-spacing:0px;fill:#000000;fill-opacity:1;stroke:#777777;stroke-width:1.84490049;stroke-miterlimit:4;stroke-opacity:1;stroke-dasharray:none;font-family:Open Sans Light;-inkscape-font-specification:Open Sans Light"
       xml:space="preserve"><tspan
         style="fill:#777777;fill-opacity:1;stroke:#777777;stroke-width:1.84490049;stroke-miterlimit:4;stroke-opacity:1;stroke-dasharray:none"
         y="893.59277"
         x="799.57043"
         id="tspan3880-4-1-5-3"
         sodipodi:role="line">octavas</tspan></text>
<g
       transform="matrix(2.1887953,0,0,2.1887953,705.19797,839.81458)"
       id="g4550"><g
         id="g4552"><path
           id="path4554"
           d="M 33.217,19.118 H 3.845 C 1.722,19.118 0,20.89 0,23.075 c 0,2.185 1.722,3.957 3.845,3.957 h 29.372 c 2.123,0 3.844,-1.771 3.844,-3.957 0,-2.186 -1.721,-3.957 -3.844,-3.957 z"
           inkscape:connector-curvature="0"
           style="fill:#777777" /></g></g><path
       id="path4556"
       d="m 779.08513,873.84816 h 2.59591 v -13.29693 h 4.64901 v -2.47115 h -11.89173 v 2.46896 h 4.64681 v 13.29912 z m -6.35188,-9.94151 c -0.27579,-3.40139 -2.49742,-6.26871 -6.75681,-6.26871 -4.87007,0 -6.92097,3.88073 -6.92097,8.32837 0,4.4345 2.14283,8.32617 6.61235,8.32617 5.09551,0 6.70428,-3.32915 7.06762,-6.47445 h -2.80166 c -0.21669,1.65692 -1.11629,4.0033 -3.81507,4.0033 -2.57183,0 -4.35133,-2.28072 -4.35133,-5.57267 0,-4.10837 1.7795,-6.14614 4.17623,-6.14614 2.1866,0 3.7297,1.41397 3.99017,3.80194 l 2.79947,0.002 0,0 z m -26.69455,9.94151 h 10.88488 v -2.47115 h -8.28678 v -4.37321 h 7.82057 v -2.47115 h -7.82057 v -3.98142 h 8.14451 v -2.47115 h -10.74042 l -0.002,15.76808 0,0 z m -12.43236,0 h 10.12318 v -2.60029 h -7.52289 v -13.16779 h -2.60029 v 15.76808 z m -13.7128,0 h 10.88707 v -2.47115 h -8.28678 v -4.37321 h 7.81838 v -2.47115 h -7.81838 v -3.98142 h 8.15545 v -2.47115 h -10.75574 v 15.76808 z m -14.36944,-11.3314 c 0,6.46789 9.12071,3.05994 9.12071,6.97351 0,1.73352 -1.47306,2.32887 -3.05337,2.32887 -2.13626,0 -3.48237,-0.99809 -3.5546,-3.07963 h -2.80604 c 0.0328,3.31602 1.81889,5.5486 6.27528,5.5486 2.6375,0 5.94477,-1.05938 5.94477,-5.12835 0,-6.73492 -9.2214,-3.1847 -9.2214,-6.88595 0,-1.48182 1.14474,-2.1691 2.87389,-2.1691 2.16691,0 3.03805,1.32422 3.1256,2.54557 h 2.81041 c -0.33269,-4.57677 -4.14995,-5.01234 -6.05639,-5.01234 -3.01398,0 -5.45886,1.36581 -5.45886,4.87882"
       inkscape:connector-curvature="0"
       style="fill:#777777" /><g
       transform="matrix(2.1887953,0,0,2.1887953,705.19797,839.81458)"
       id="g4558"
       style="opacity:0"><path
         id="path4560"
         d="M 36.961,0.1 V 36.961 H 0.1 V 0.1 H 36.961 M 37.061,0 H 0 V 37.06 H 37.061 V 0 l 0,0 z"
         inkscape:connector-curvature="0"
         style="fill:#777777" /></g></g><g
     transform="matrix(1.1753096,0,0,1.1753096,358.6273,313.90068)"
     id="g3152"><rect
       style="fill:#efefef;fill-opacity:1;stroke:#777777;stroke-width:1.87023032;stroke-linejoin:miter;stroke-miterlimit:32.40000153;stroke-opacity:1;stroke-dasharray:none;stroke-dashoffset:0"
       id="rect3154"
       width="175.71783"
       height="91.002975"
       x="18.887672"
       y="366.72452"
       ry="9.8219786"
       rx="4.3583865" /><text
       xml:space="preserve"
       style="font-size:40px;font-style:normal;font-variant:normal;font-weight:normal;font-stretch:normal;text-indent:0;text-align:start;text-decoration:none;line-height:125%;letter-spacing:0px;word-spacing:0px;text-transform:none;direction:ltr;block-progression:tb;writing-mode:lr-tb;text-anchor:start;baseline-shift:baseline;color:#000000;fill:#777777;fill-opacity:1;fill-rule:nonzero;stroke:#777777;stroke-width:2;stroke-linecap:butt;stroke-linejoin:miter;stroke-miterlimit:4;stroke-opacity:1;stroke-dasharray:none;stroke-dashoffset:0;marker:none;visibility:visible;display:inline;overflow:visible;enable-background:accumulate;font-family:Open Sans Light;-inkscape-font-specification:Open Sans Light"
       x="114.76841"
       y="426.36661"
       id="text3156"
       sodipodi:linespacing="125%"><tspan
         sodipodi:role="line"
         id="tspan3158"
         x="114.76841"
         y="426.36661"
         style="font-size:40px;font-style:normal;font-variant:normal;font-weight:normal;font-stretch:normal;text-indent:0;text-align:start;text-decoration:none;line-height:125%;letter-spacing:0px;word-spacing:0px;text-transform:none;direction:ltr;block-progression:tb;writing-mode:lr-tb;text-anchor:start;baseline-shift:baseline;color:#000000;fill:#777777;fill-opacity:1;fill-rule:nonzero;stroke:#777777;stroke-width:2;stroke-linecap:butt;stroke-linejoin:miter;stroke-miterlimit:4;stroke-opacity:1;stroke-dasharray:none;stroke-dashoffset:0;marker:none;visibility:visible;display:inline;overflow:visible;enable-background:accumulate;font-family:Open Sans Light;-inkscape-font-specification:Open Sans Light">RE</tspan></text>
<g
       id="g3160"
       transform="matrix(1.9490067,0,0,1.9490067,23.973023,376.11089)"><g
         id="g3162"><g
           id="g3164"><path
             id="path3166"
             d="m 22.086,37.06 h -7.111 c -2.289,0 -3.119,-1.866 -3.119,-3.121 V 25.207 H 3.121 C 0.831,25.206 0,23.34 0,22.085 v -7.11 c 0,-2.289 1.867,-3.12 3.121,-3.12 h 8.733 V 3.121 C 11.855,0.831 13.72,0 14.974,0 h 7.111 c 2.29,0 3.121,1.867 3.121,3.121 v 8.732 h 8.731 c 2.29,0 3.121,1.865 3.121,3.12 v 7.11 c 0,2.29 -1.866,3.121 -3.121,3.121 h -8.731 v 8.732 c 0.001,2.293 -1.865,3.124 -3.12,3.124 z M 3.121,13.354 C 2.745,13.359 1.5,13.493 1.5,14.974 v 7.11 c 0.006,0.376 0.139,1.621 1.621,1.621 h 10.233 v 10.232 c 0.005,0.376 0.14,1.621 1.619,1.621 h 7.108 c 0.384,-0.007 1.624,-0.143 1.624,-1.621 V 23.706 h 10.231 c 0.376,-0.006 1.621,-0.14 1.621,-1.621 v -7.11 c -0.006,-0.376 -0.14,-1.62 -1.621,-1.62 H 23.706 V 3.121 C 23.701,2.745 23.567,1.5 22.086,1.5 h -7.111 c -0.376,0.006 -1.619,0.14 -1.619,1.621 v 10.232 l -10.235,10e-4 0,0 z"
             inkscape:connector-curvature="0"
             style="fill:#777777" /></g></g><g
         id="g3168"><path
           id="path3170"
           d="m 18.531,22.181 c -2.013,0 -3.649,-1.639 -3.649,-3.651 0,-2.012 1.638,-3.65 3.649,-3.65 2.013,0 3.65,1.639 3.65,3.65 10e-4,2.013 -1.637,3.651 -3.65,3.651 z m 0,-5.802 c -1.186,0 -2.149,0.965 -2.149,2.15 0,1.185 0.965,2.151 2.149,2.151 1.186,0 2.15,-0.966 2.15,-2.151 10e-4,-1.185 -0.964,-2.15 -2.15,-2.15 z"
           inkscape:connector-curvature="0"
           style="fill:#777777" /></g><g
         id="g3172"><path
           id="path3174"
           d="m 18.53,3.183 -3.005,4.684 h 6.012 L 18.53,3.183 z"
           inkscape:connector-curvature="0"
           style="fill:#777777" /><path
           id="path3176"
           d="m 21.536,8.616 h -6.012 c -0.273,0 -0.525,-0.15 -0.657,-0.39 C 14.735,7.985 14.746,7.692 14.893,7.46 l 3.005,-4.684 c 0.276,-0.431 0.986,-0.43 1.264,0 l 3.005,4.684 c 0.147,0.231 0.159,0.524 0.026,0.766 -0.13,0.24 -0.382,0.39 -0.657,0.39 z m -4.639,-1.5 h 3.268 L 18.53,4.571 16.897,7.116 z"
           inkscape:connector-curvature="0"
           style="fill:#777777" /></g><g
         id="g3178"><path
           id="path3180"
           d="m 7.809,22.284 c -0.141,0 -0.282,-0.04 -0.405,-0.119 L 2.72,19.162 C 2.505,19.024 2.375,18.786 2.375,18.531 c 0,-0.255 0.13,-0.493 0.345,-0.631 l 4.684,-3.006 c 0.23,-0.148 0.524,-0.158 0.766,-0.027 0.24,0.131 0.39,0.384 0.39,0.658 v 6.01 c 0,0.274 -0.148,0.526 -0.39,0.658 -0.114,0.061 -0.238,0.091 -0.361,0.091 z M 4.514,18.53 7.059,20.162 V 16.897 L 4.514,18.53 z"
           inkscape:connector-curvature="0"
           style="fill:#777777" /></g><g
         id="g3182"><path
           id="path3184"
           d="m 29.195,22.284 c -0.124,0 -0.246,-0.03 -0.358,-0.092 -0.241,-0.132 -0.392,-0.384 -0.392,-0.658 v -6.01 c 0,-0.274 0.149,-0.526 0.392,-0.658 0.239,-0.131 0.533,-0.123 0.765,0.027 l 4.685,3.005 c 0.215,0.138 0.345,0.376 0.345,0.631 0,0.255 -0.13,0.493 -0.345,0.631 l -4.685,3.004 c -0.124,0.08 -0.266,0.12 -0.407,0.12 z m 0.75,-5.388 v 3.266 l 2.546,-1.633 -2.546,-1.633 z"
           inkscape:connector-curvature="0"
           style="fill:#777777" /></g><g
         id="g3186"><path
           id="path3188"
           d="m 18.53,34.626 0,0 c -0.255,0 -0.492,-0.13 -0.631,-0.345 L 14.894,29.597 C 14.747,29.366 14.736,29.073 14.868,28.831 15,28.589 15.252,28.44 15.525,28.44 h 6.012 c 0.273,0 0.525,0.148 0.657,0.391 0.133,0.24 0.121,0.533 -0.026,0.766 l -3.005,4.684 c -0.14,0.215 -0.377,0.345 -0.633,0.345 z m -1.633,-4.684 1.633,2.545 1.635,-2.545 h -3.268 z"
           inkscape:connector-curvature="0"
           style="fill:#777777" /></g></g></g><g
     transform="matrix(1.1753096,0,0,1.1753096,-629.8048,-801.0119)"
     id="g3844"><rect
       style="fill:#efefef;fill-opacity:1;stroke:#777777;stroke-width:2.24330425;stroke-linejoin:miter;stroke-miterlimit:4;stroke-opacity:1;stroke-dasharray:none"
       id="rect3846"
       width="253.81186"
       height="90.6297"
       x="694.21216"
       y="835.05811"
       ry="9.7558298"
       rx="7.554328" /><text
       xml:space="preserve"
       style="font-size:36.89800644px;font-style:normal;font-weight:normal;line-height:125%;letter-spacing:0px;word-spacing:0px;fill:#000000;fill-opacity:1;stroke:#777777;stroke-width:1.84490049;stroke-miterlimit:4;stroke-opacity:1;stroke-dasharray:none;font-family:Open Sans Light;-inkscape-font-specification:Open Sans Light"
       x="799.57043"
       y="893.59277"
       id="text3848"
       sodipodi:linespacing="125%"><tspan
         sodipodi:role="line"
         id="tspan3850"
         x="799.57043"
         y="893.59277"
         style="fill:#777777;fill-opacity:1;stroke:#777777;stroke-width:1.84490049;stroke-miterlimit:4;stroke-opacity:1;stroke-dasharray:none">octavas</tspan></text>
<g
       id="g3852"
       transform="matrix(2.1887953,0,0,2.1887953,705.19797,839.81458)"><g
         id="g3854"><path
           style="fill:#777777"
           inkscape:connector-curvature="0"
           d="M 33.217,19.118 H 3.845 C 1.722,19.118 0,20.89 0,23.075 c 0,2.185 1.722,3.957 3.845,3.957 h 29.372 c 2.123,0 3.844,-1.771 3.844,-3.957 0,-2.186 -1.721,-3.957 -3.844,-3.957 z"
           id="path3856" /></g></g><path
       style="fill:#777777"
       inkscape:connector-curvature="0"
       d="m 779.08513,873.84816 h 2.59591 v -13.29693 h 4.64901 v -2.47115 h -11.89173 v 2.46896 h 4.64681 v 13.29912 z m -6.35188,-9.94151 c -0.27579,-3.40139 -2.49742,-6.26871 -6.75681,-6.26871 -4.87007,0 -6.92097,3.88073 -6.92097,8.32837 0,4.4345 2.14283,8.32617 6.61235,8.32617 5.09551,0 6.70428,-3.32915 7.06762,-6.47445 h -2.80166 c -0.21669,1.65692 -1.11629,4.0033 -3.81507,4.0033 -2.57183,0 -4.35133,-2.28072 -4.35133,-5.57267 0,-4.10837 1.7795,-6.14614 4.17623,-6.14614 2.1866,0 3.7297,1.41397 3.99017,3.80194 l 2.79947,0.002 0,0 z m -26.69455,9.94151 h 10.88488 v -2.47115 h -8.28678 v -4.37321 h 7.82057 v -2.47115 h -7.82057 v -3.98142 h 8.14451 v -2.47115 h -10.74042 l -0.002,15.76808 0,0 z m -12.43236,0 h 10.12318 v -2.60029 h -7.52289 v -13.16779 h -2.60029 v 15.76808 z m -13.7128,0 h 10.88707 v -2.47115 h -8.28678 v -4.37321 h 7.81838 v -2.47115 h -7.81838 v -3.98142 h 8.15545 v -2.47115 h -10.75574 v 15.76808 z m -14.36944,-11.3314 c 0,6.46789 9.12071,3.05994 9.12071,6.97351 0,1.73352 -1.47306,2.32887 -3.05337,2.32887 -2.13626,0 -3.48237,-0.99809 -3.5546,-3.07963 h -2.80604 c 0.0328,3.31602 1.81889,5.5486 6.27528,5.5486 2.6375,0 5.94477,-1.05938 5.94477,-5.12835 0,-6.73492 -9.2214,-3.1847 -9.2214,-6.88595 0,-1.48182 1.14474,-2.1691 2.87389,-2.1691 2.16691,0 3.03805,1.32422 3.1256,2.54557 h 2.81041 c -0.33269,-4.57677 -4.14995,-5.01234 -6.05639,-5.01234 -3.01398,0 -5.45886,1.36581 -5.45886,4.87882"
       id="path3858" /><g
       style="opacity:0"
       id="g3860"
       transform="matrix(2.1887953,0,0,2.1887953,705.19797,839.81458)"><path
         style="fill:#777777"
         inkscape:connector-curvature="0"
         d="M 36.961,0.1 V 36.961 H 0.1 V 0.1 H 36.961 M 37.061,0 H 0 V 37.06 H 37.061 V 0 l 0,0 z"
         id="path3862" /></g></g><path
     style="fill:none;stroke:#000000;stroke-width:8.22716713;stroke-linecap:butt;stroke-linejoin:miter;stroke-miterlimit:4;stroke-opacity:1;stroke-dasharray:none;marker-start:url(#DotM-1);marker-end:none"
     d="m 620.73585,634.30857 -210.7735,2.91358"
     id="path5113"
     inkscape:connector-curvature="0"
     sodipodi:nodetypes="cc" /><g
     id="g6430"
     transform="matrix(1.1753096,0,0,1.1753096,239.17836,150.17622)"><rect
       rx="4.3583865"
       ry="9.8219786"
       y="366.72452"
       x="18.887672"
       height="91.002975"
       width="175.71783"
       id="rect3010"
       style="fill:#efefef;fill-opacity:1;stroke:#777777;stroke-width:1.87023032;stroke-linejoin:miter;stroke-miterlimit:32.40000153;stroke-opacity:1;stroke-dasharray:none;stroke-dashoffset:0" /><text
       sodipodi:linespacing="125%"
       id="text3878"
       y="426.36661"
       x="114.76841"
       style="font-size:40px;font-style:normal;font-variant:normal;font-weight:normal;font-stretch:normal;text-indent:0;text-align:start;text-decoration:none;line-height:125%;letter-spacing:0px;word-spacing:0px;text-transform:none;direction:ltr;block-progression:tb;writing-mode:lr-tb;text-anchor:start;baseline-shift:baseline;color:#000000;fill:#777777;fill-opacity:1;fill-rule:nonzero;stroke:#777777;stroke-width:2;stroke-linecap:butt;stroke-linejoin:miter;stroke-miterlimit:4;stroke-opacity:1;stroke-dasharray:none;stroke-dashoffset:0;marker:none;visibility:visible;display:inline;overflow:visible;enable-background:accumulate;font-family:Open Sans Light;-inkscape-font-specification:Open Sans Light"
       xml:space="preserve"><tspan
         style="font-size:40px;font-style:normal;font-variant:normal;font-weight:normal;font-stretch:normal;text-indent:0;text-align:start;text-decoration:none;line-height:125%;letter-spacing:0px;word-spacing:0px;text-transform:none;direction:ltr;block-progression:tb;writing-mode:lr-tb;text-anchor:start;baseline-shift:baseline;color:#000000;fill:#777777;fill-opacity:1;fill-rule:nonzero;stroke:#777777;stroke-width:2;stroke-linecap:butt;stroke-linejoin:miter;stroke-miterlimit:4;stroke-opacity:1;stroke-dasharray:none;stroke-dashoffset:0;marker:none;visibility:visible;display:inline;overflow:visible;enable-background:accumulate;font-family:Open Sans Light;-inkscape-font-specification:Open Sans Light"
         y="426.36661"
         x="114.76841"
         id="tspan3880"
         sodipodi:role="line">DO</tspan></text>
<g
       transform="matrix(0,-1.9490067,1.9490067,0,23.971074,448.33913)"
       id="g3827"><g
         id="g3829"><g
           id="g3831"><path
             style="fill:#777777"
             inkscape:connector-curvature="0"
             d="m 22.086,37.06 h -7.111 c -2.289,0 -3.119,-1.866 -3.119,-3.121 V 25.207 H 3.121 C 0.831,25.206 0,23.34 0,22.085 v -7.11 c 0,-2.289 1.867,-3.12 3.121,-3.12 h 8.733 V 3.121 C 11.855,0.831 13.72,0 14.974,0 h 7.111 c 2.29,0 3.121,1.867 3.121,3.121 v 8.732 h 8.731 c 2.29,0 3.121,1.865 3.121,3.12 v 7.11 c 0,2.29 -1.866,3.121 -3.121,3.121 h -8.731 v 8.732 c 0.001,2.293 -1.865,3.124 -3.12,3.124 z M 3.121,13.354 C 2.745,13.359 1.5,13.493 1.5,14.974 v 7.11 c 0.006,0.376 0.139,1.621 1.621,1.621 h 10.233 v 10.232 c 0.005,0.376 0.14,1.621 1.619,1.621 h 7.108 c 0.384,-0.007 1.624,-0.143 1.624,-1.621 V 23.706 h 10.231 c 0.376,-0.006 1.621,-0.14 1.621,-1.621 v -7.11 c -0.006,-0.376 -0.14,-1.62 -1.621,-1.62 H 23.706 V 3.121 C 23.701,2.745 23.567,1.5 22.086,1.5 h -7.111 c -0.376,0.006 -1.619,0.14 -1.619,1.621 v 10.232 l -10.235,10e-4 0,0 z"
             id="path3833" /></g></g><g
         id="g3835"><path
           style="fill:#777777"
           inkscape:connector-curvature="0"
           d="m 18.531,22.181 c -2.013,0 -3.649,-1.639 -3.649,-3.651 0,-2.012 1.638,-3.65 3.649,-3.65 2.013,0 3.65,1.639 3.65,3.65 10e-4,2.013 -1.637,3.651 -3.65,3.651 z m 0,-5.802 c -1.186,0 -2.149,0.965 -2.149,2.15 0,1.185 0.965,2.151 2.149,2.151 1.186,0 2.15,-0.966 2.15,-2.151 10e-4,-1.185 -0.964,-2.15 -2.15,-2.15 z"
           id="path3837" /></g><g
         id="g3839"><path
           style="fill:#777777"
           inkscape:connector-curvature="0"
           d="m 18.53,3.183 -3.005,4.684 h 6.012 L 18.53,3.183 z"
           id="path3841" /><path
           style="fill:#777777"
           inkscape:connector-curvature="0"
           d="m 21.536,8.616 h -6.012 c -0.273,0 -0.525,-0.15 -0.657,-0.39 C 14.735,7.985 14.746,7.692 14.893,7.46 l 3.005,-4.684 c 0.276,-0.431 0.986,-0.43 1.264,0 l 3.005,4.684 c 0.147,0.231 0.159,0.524 0.026,0.766 -0.13,0.24 -0.382,0.39 -0.657,0.39 z m -4.639,-1.5 h 3.268 L 18.53,4.571 16.897,7.116 z"
           id="path3843" /></g><g
         id="g3845"><path
           style="fill:#777777"
           inkscape:connector-curvature="0"
           d="m 7.809,22.284 c -0.141,0 -0.282,-0.04 -0.405,-0.119 L 2.72,19.162 C 2.505,19.024 2.375,18.786 2.375,18.531 c 0,-0.255 0.13,-0.493 0.345,-0.631 l 4.684,-3.006 c 0.23,-0.148 0.524,-0.158 0.766,-0.027 0.24,0.131 0.39,0.384 0.39,0.658 v 6.01 c 0,0.274 -0.148,0.526 -0.39,0.658 -0.114,0.061 -0.238,0.091 -0.361,0.091 z M 4.514,18.53 7.059,20.162 V 16.897 L 4.514,18.53 z"
           id="path3847" /></g><g
         id="g3849"><path
           style="fill:#777777"
           inkscape:connector-curvature="0"
           d="m 29.195,22.284 c -0.124,0 -0.246,-0.03 -0.358,-0.092 -0.241,-0.132 -0.392,-0.384 -0.392,-0.658 v -6.01 c 0,-0.274 0.149,-0.526 0.392,-0.658 0.239,-0.131 0.533,-0.123 0.765,0.027 l 4.685,3.005 c 0.215,0.138 0.345,0.376 0.345,0.631 0,0.255 -0.13,0.493 -0.345,0.631 l -4.685,3.004 c -0.124,0.08 -0.266,0.12 -0.407,0.12 z m 0.75,-5.388 v 3.266 l 2.546,-1.633 -2.546,-1.633 z"
           id="path3851" /></g><g
         id="g3853"><path
           style="fill:#777777"
           inkscape:connector-curvature="0"
           d="m 18.53,34.626 0,0 c -0.255,0 -0.492,-0.13 -0.631,-0.345 L 14.894,29.597 C 14.747,29.366 14.736,29.073 14.868,28.831 15,28.589 15.252,28.44 15.525,28.44 h 6.012 c 0.273,0 0.525,0.148 0.657,0.391 0.133,0.24 0.121,0.533 -0.026,0.766 l -3.005,4.684 c -0.14,0.215 -0.377,0.345 -0.633,0.345 z m -1.633,-4.684 1.633,2.545 1.635,-2.545 h -3.268 z"
           id="path3855" /></g></g></g><path
     style="fill:none;stroke:#000000;stroke-width:8.22716713;stroke-linecap:butt;stroke-linejoin:miter;stroke-miterlimit:4;stroke-opacity:1;stroke-dasharray:none;marker-start:url(#DotM-1);marker-end:none"
     d="m 853.74039,635.62876 0,226.79319"
     id="path4095"
     inkscape:connector-curvature="0"
     sodipodi:nodetypes="cc" /><g
     transform="matrix(1.1753096,0,0,1.1753096,644.52971,387.62631)"
     id="g3228"><rect
       style="fill:#efefef;fill-opacity:1;stroke:#777777;stroke-width:1.87023032;stroke-linejoin:miter;stroke-miterlimit:32.40000153;stroke-opacity:1;stroke-dasharray:none;stroke-dashoffset:0"
       id="rect3230"
       width="175.71783"
       height="91.002975"
       x="18.887672"
       y="366.72452"
       ry="9.8219786"
       rx="4.3583865" /><text
       xml:space="preserve"
       style="font-size:40px;font-style:normal;font-variant:normal;font-weight:normal;font-stretch:normal;text-indent:0;text-align:start;text-decoration:none;line-height:125%;letter-spacing:0px;word-spacing:0px;text-transform:none;direction:ltr;block-progression:tb;writing-mode:lr-tb;text-anchor:start;baseline-shift:baseline;color:#000000;fill:#777777;fill-opacity:1;fill-rule:nonzero;stroke:#777777;stroke-width:2;stroke-linecap:butt;stroke-linejoin:miter;stroke-miterlimit:4;stroke-opacity:1;stroke-dasharray:none;stroke-dashoffset:0;marker:none;visibility:visible;display:inline;overflow:visible;enable-background:accumulate;font-family:Open Sans Light;-inkscape-font-specification:Open Sans Light"
       x="114.76841"
       y="426.36661"
       id="text3232"
       sodipodi:linespacing="125%"><tspan
         sodipodi:role="line"
         id="tspan3234"
         x="114.76841"
         y="426.36661"
         style="font-size:40px;font-style:normal;font-variant:normal;font-weight:normal;font-stretch:normal;text-indent:0;text-align:start;text-decoration:none;line-height:125%;letter-spacing:0px;word-spacing:0px;text-transform:none;direction:ltr;block-progression:tb;writing-mode:lr-tb;text-anchor:start;baseline-shift:baseline;color:#000000;fill:#777777;fill-opacity:1;fill-rule:nonzero;stroke:#777777;stroke-width:2;stroke-linecap:butt;stroke-linejoin:miter;stroke-miterlimit:4;stroke-opacity:1;stroke-dasharray:none;stroke-dashoffset:0;marker:none;visibility:visible;display:inline;overflow:visible;enable-background:accumulate;font-family:Open Sans Light;-inkscape-font-specification:Open Sans Light">MI</tspan></text>
<g
       id="g3236"
       transform="matrix(0,1.9490067,-1.9490067,0,96.201262,376.11284)"><g
         id="g3238"><g
           id="g3240"><path
             id="path3242"
             d="m 22.086,37.06 h -7.111 c -2.289,0 -3.119,-1.866 -3.119,-3.121 V 25.207 H 3.121 C 0.831,25.206 0,23.34 0,22.085 v -7.11 c 0,-2.289 1.867,-3.12 3.121,-3.12 h 8.733 V 3.121 C 11.855,0.831 13.72,0 14.974,0 h 7.111 c 2.29,0 3.121,1.867 3.121,3.121 v 8.732 h 8.731 c 2.29,0 3.121,1.865 3.121,3.12 v 7.11 c 0,2.29 -1.866,3.121 -3.121,3.121 h -8.731 v 8.732 c 0.001,2.293 -1.865,3.124 -3.12,3.124 z M 3.121,13.354 C 2.745,13.359 1.5,13.493 1.5,14.974 v 7.11 c 0.006,0.376 0.139,1.621 1.621,1.621 h 10.233 v 10.232 c 0.005,0.376 0.14,1.621 1.619,1.621 h 7.108 c 0.384,-0.007 1.624,-0.143 1.624,-1.621 V 23.706 h 10.231 c 0.376,-0.006 1.621,-0.14 1.621,-1.621 v -7.11 c -0.006,-0.376 -0.14,-1.62 -1.621,-1.62 H 23.706 V 3.121 C 23.701,2.745 23.567,1.5 22.086,1.5 h -7.111 c -0.376,0.006 -1.619,0.14 -1.619,1.621 v 10.232 l -10.235,10e-4 0,0 z"
             inkscape:connector-curvature="0"
             style="fill:#777777" /></g></g><g
         id="g3244"><path
           id="path3246"
           d="m 18.531,22.181 c -2.013,0 -3.649,-1.639 -3.649,-3.651 0,-2.012 1.638,-3.65 3.649,-3.65 2.013,0 3.65,1.639 3.65,3.65 10e-4,2.013 -1.637,3.651 -3.65,3.651 z m 0,-5.802 c -1.186,0 -2.149,0.965 -2.149,2.15 0,1.185 0.965,2.151 2.149,2.151 1.186,0 2.15,-0.966 2.15,-2.151 10e-4,-1.185 -0.964,-2.15 -2.15,-2.15 z"
           inkscape:connector-curvature="0"
           style="fill:#777777" /></g><g
         id="g3248"><path
           id="path3250"
           d="m 18.53,3.183 -3.005,4.684 h 6.012 L 18.53,3.183 z"
           inkscape:connector-curvature="0"
           style="fill:#777777" /><path
           id="path3252"
           d="m 21.536,8.616 h -6.012 c -0.273,0 -0.525,-0.15 -0.657,-0.39 C 14.735,7.985 14.746,7.692 14.893,7.46 l 3.005,-4.684 c 0.276,-0.431 0.986,-0.43 1.264,0 l 3.005,4.684 c 0.147,0.231 0.159,0.524 0.026,0.766 -0.13,0.24 -0.382,0.39 -0.657,0.39 z m -4.639,-1.5 h 3.268 L 18.53,4.571 16.897,7.116 z"
           inkscape:connector-curvature="0"
           style="fill:#777777" /></g><g
         id="g3254"><path
           id="path3256"
           d="m 7.809,22.284 c -0.141,0 -0.282,-0.04 -0.405,-0.119 L 2.72,19.162 C 2.505,19.024 2.375,18.786 2.375,18.531 c 0,-0.255 0.13,-0.493 0.345,-0.631 l 4.684,-3.006 c 0.23,-0.148 0.524,-0.158 0.766,-0.027 0.24,0.131 0.39,0.384 0.39,0.658 v 6.01 c 0,0.274 -0.148,0.526 -0.39,0.658 -0.114,0.061 -0.238,0.091 -0.361,0.091 z M 4.514,18.53 7.059,20.162 V 16.897 L 4.514,18.53 z"
           inkscape:connector-curvature="0"
           style="fill:#777777" /></g><g
         id="g3258"><path
           id="path3260"
           d="m 29.195,22.284 c -0.124,0 -0.246,-0.03 -0.358,-0.092 -0.241,-0.132 -0.392,-0.384 -0.392,-0.658 v -6.01 c 0,-0.274 0.149,-0.526 0.392,-0.658 0.239,-0.131 0.533,-0.123 0.765,0.027 l 4.685,3.005 c 0.215,0.138 0.345,0.376 0.345,0.631 0,0.255 -0.13,0.493 -0.345,0.631 l -4.685,3.004 c -0.124,0.08 -0.266,0.12 -0.407,0.12 z m 0.75,-5.388 v 3.266 l 2.546,-1.633 -2.546,-1.633 z"
           inkscape:connector-curvature="0"
           style="fill:#777777" /></g><g
         id="g3262"><path
           id="path3264"
           d="m 18.53,34.626 0,0 c -0.255,0 -0.492,-0.13 -0.631,-0.345 L 14.894,29.597 C 14.747,29.366 14.736,29.073 14.868,28.831 15,28.589 15.252,28.44 15.525,28.44 h 6.012 c 0.273,0 0.525,0.148 0.657,0.391 0.133,0.24 0.121,0.533 -0.026,0.766 l -3.005,4.684 c -0.14,0.215 -0.377,0.345 -0.633,0.345 z m -1.633,-4.684 1.633,2.545 1.635,-2.545 h -3.268 z"
           inkscape:connector-curvature="0"
           style="fill:#777777" /></g></g></g><path
     sodipodi:nodetypes="cc"
     inkscape:connector-curvature="0"
     id="path4099"
     d="m 973.74039,635.62876 0,166.79319"
     style="fill:none;stroke:#000000;stroke-width:8.22716713;stroke-linecap:butt;stroke-linejoin:miter;stroke-miterlimit:4;stroke-opacity:1;stroke-dasharray:none;marker-start:url(#DotM-1);marker-end:none" /><g
     id="g3190"
     transform="matrix(1.1753096,0,0,1.1753096,858.53881,317.32283)"><rect
       rx="4.3583865"
       ry="9.8219786"
       y="366.72452"
       x="18.887672"
       height="91.002975"
       width="175.71783"
       id="rect3192"
       style="fill:#efefef;fill-opacity:1;stroke:#777777;stroke-width:1.87023032;stroke-linejoin:miter;stroke-miterlimit:32.40000153;stroke-opacity:1;stroke-dasharray:none;stroke-dashoffset:0" /><text
       sodipodi:linespacing="125%"
       id="text3194"
       y="426.36661"
       x="114.76841"
       style="font-size:40px;font-style:normal;font-variant:normal;font-weight:normal;font-stretch:normal;text-indent:0;text-align:start;text-decoration:none;line-height:125%;letter-spacing:0px;word-spacing:0px;text-transform:none;direction:ltr;block-progression:tb;writing-mode:lr-tb;text-anchor:start;baseline-shift:baseline;color:#000000;fill:#777777;fill-opacity:1;fill-rule:nonzero;stroke:#777777;stroke-width:2;stroke-linecap:butt;stroke-linejoin:miter;stroke-miterlimit:4;stroke-opacity:1;stroke-dasharray:none;stroke-dashoffset:0;marker:none;visibility:visible;display:inline;overflow:visible;enable-background:accumulate;font-family:Open Sans Light;-inkscape-font-specification:Open Sans Light"
       xml:space="preserve"><tspan
         style="font-size:40px;font-style:normal;font-variant:normal;font-weight:normal;font-stretch:normal;text-indent:0;text-align:start;text-decoration:none;line-height:125%;letter-spacing:0px;word-spacing:0px;text-transform:none;direction:ltr;block-progression:tb;writing-mode:lr-tb;text-anchor:start;baseline-shift:baseline;color:#000000;fill:#777777;fill-opacity:1;fill-rule:nonzero;stroke:#777777;stroke-width:2;stroke-linecap:butt;stroke-linejoin:miter;stroke-miterlimit:4;stroke-opacity:1;stroke-dasharray:none;stroke-dashoffset:0;marker:none;visibility:visible;display:inline;overflow:visible;enable-background:accumulate;font-family:Open Sans Light;-inkscape-font-specification:Open Sans Light"
         y="426.36661"
         x="114.76841"
         id="tspan3196"
         sodipodi:role="line">FA</tspan></text>
<g
       transform="matrix(1.9490067,0,0,-1.9490067,23.973023,448.34108)"
       id="g3198"><g
         id="g3200"><g
           id="g3202"><path
             style="fill:#777777"
             inkscape:connector-curvature="0"
             d="m 22.086,37.06 h -7.111 c -2.289,0 -3.119,-1.866 -3.119,-3.121 V 25.207 H 3.121 C 0.831,25.206 0,23.34 0,22.085 v -7.11 c 0,-2.289 1.867,-3.12 3.121,-3.12 h 8.733 V 3.121 C 11.855,0.831 13.72,0 14.974,0 h 7.111 c 2.29,0 3.121,1.867 3.121,3.121 v 8.732 h 8.731 c 2.29,0 3.121,1.865 3.121,3.12 v 7.11 c 0,2.29 -1.866,3.121 -3.121,3.121 h -8.731 v 8.732 c 0.001,2.293 -1.865,3.124 -3.12,3.124 z M 3.121,13.354 C 2.745,13.359 1.5,13.493 1.5,14.974 v 7.11 c 0.006,0.376 0.139,1.621 1.621,1.621 h 10.233 v 10.232 c 0.005,0.376 0.14,1.621 1.619,1.621 h 7.108 c 0.384,-0.007 1.624,-0.143 1.624,-1.621 V 23.706 h 10.231 c 0.376,-0.006 1.621,-0.14 1.621,-1.621 v -7.11 c -0.006,-0.376 -0.14,-1.62 -1.621,-1.62 H 23.706 V 3.121 C 23.701,2.745 23.567,1.5 22.086,1.5 h -7.111 c -0.376,0.006 -1.619,0.14 -1.619,1.621 v 10.232 l -10.235,10e-4 0,0 z"
             id="path3204" /></g></g><g
         id="g3206"><path
           style="fill:#777777"
           inkscape:connector-curvature="0"
           d="m 18.531,22.181 c -2.013,0 -3.649,-1.639 -3.649,-3.651 0,-2.012 1.638,-3.65 3.649,-3.65 2.013,0 3.65,1.639 3.65,3.65 10e-4,2.013 -1.637,3.651 -3.65,3.651 z m 0,-5.802 c -1.186,0 -2.149,0.965 -2.149,2.15 0,1.185 0.965,2.151 2.149,2.151 1.186,0 2.15,-0.966 2.15,-2.151 10e-4,-1.185 -0.964,-2.15 -2.15,-2.15 z"
           id="path3208" /></g><g
         id="g3210"><path
           style="fill:#777777"
           inkscape:connector-curvature="0"
           d="m 18.53,3.183 -3.005,4.684 h 6.012 L 18.53,3.183 z"
           id="path3212" /><path
           style="fill:#777777"
           inkscape:connector-curvature="0"
           d="m 21.536,8.616 h -6.012 c -0.273,0 -0.525,-0.15 -0.657,-0.39 C 14.735,7.985 14.746,7.692 14.893,7.46 l 3.005,-4.684 c 0.276,-0.431 0.986,-0.43 1.264,0 l 3.005,4.684 c 0.147,0.231 0.159,0.524 0.026,0.766 -0.13,0.24 -0.382,0.39 -0.657,0.39 z m -4.639,-1.5 h 3.268 L 18.53,4.571 16.897,7.116 z"
           id="path3214" /></g><g
         id="g3216"><path
           style="fill:#777777"
           inkscape:connector-curvature="0"
           d="m 7.809,22.284 c -0.141,0 -0.282,-0.04 -0.405,-0.119 L 2.72,19.162 C 2.505,19.024 2.375,18.786 2.375,18.531 c 0,-0.255 0.13,-0.493 0.345,-0.631 l 4.684,-3.006 c 0.23,-0.148 0.524,-0.158 0.766,-0.027 0.24,0.131 0.39,0.384 0.39,0.658 v 6.01 c 0,0.274 -0.148,0.526 -0.39,0.658 -0.114,0.061 -0.238,0.091 -0.361,0.091 z M 4.514,18.53 7.059,20.162 V 16.897 L 4.514,18.53 z"
           id="path3218" /></g><g
         id="g3220"><path
           style="fill:#777777"
           inkscape:connector-curvature="0"
           d="m 29.195,22.284 c -0.124,0 -0.246,-0.03 -0.358,-0.092 -0.241,-0.132 -0.392,-0.384 -0.392,-0.658 v -6.01 c 0,-0.274 0.149,-0.526 0.392,-0.658 0.239,-0.131 0.533,-0.123 0.765,0.027 l 4.685,3.005 c 0.215,0.138 0.345,0.376 0.345,0.631 0,0.255 -0.13,0.493 -0.345,0.631 l -4.685,3.004 c -0.124,0.08 -0.266,0.12 -0.407,0.12 z m 0.75,-5.388 v 3.266 l 2.546,-1.633 -2.546,-1.633 z"
           id="path3222" /></g><g
         id="g3224"><path
           style="fill:#777777"
           inkscape:connector-curvature="0"
           d="m 18.53,34.626 0,0 c -0.255,0 -0.492,-0.13 -0.631,-0.345 L 14.894,29.597 C 14.747,29.366 14.736,29.073 14.868,28.831 15,28.589 15.252,28.44 15.525,28.44 h 6.012 c 0.273,0 0.525,0.148 0.657,0.391 0.133,0.24 0.121,0.533 -0.026,0.766 l -3.005,4.684 c -0.14,0.215 -0.377,0.345 -0.633,0.345 z m -1.633,-4.684 1.633,2.545 1.635,-2.545 h -3.268 z"
           id="path3226" /></g></g></g><path
     style="fill:none;stroke:#000000;stroke-width:8.22716713;stroke-linecap:butt;stroke-linejoin:miter;stroke-miterlimit:4;stroke-opacity:1;stroke-dasharray:none;marker-start:url(#DotM-1);marker-end:none"
     d="m 1101.7404,635.62876 0,266.79319"
     id="path4139"
     inkscape:connector-curvature="0"
     sodipodi:nodetypes="cc" /><g
     id="g6684"
     transform="matrix(1.1753096,0,0,1.1753096,-134.96911,-108.66997)"><rect
       rx="8.3117142"
       ry="9.7431641"
       y="833.19171"
       x="1009.9119"
       height="90.635323"
       width="252.52551"
       id="rect3010-1-7-7-7-0"
       style="fill:#efefef;fill-opacity:1;stroke:#777777;stroke-width:2.23768187;stroke-linejoin:miter;stroke-miterlimit:4;stroke-opacity:1;stroke-dasharray:none" /><text
       sodipodi:linespacing="125%"
       id="text3878-7-6-9-9-9"
       y="892.79651"
       x="1127.1074"
       style="font-size:40px;font-style:normal;font-weight:normal;line-height:125%;letter-spacing:0px;word-spacing:0px;fill:#000000;fill-opacity:1;stroke:#777777;stroke-width:2;stroke-miterlimit:4;stroke-opacity:1;stroke-dasharray:none;font-family:Open Sans Light;-inkscape-font-specification:Open Sans Light"
       xml:space="preserve"><tspan
         style="fill:#777777;fill-opacity:1;stroke:#777777;stroke-width:2;stroke-miterlimit:4;stroke-opacity:1;stroke-dasharray:none"
         y="892.79651"
         x="1127.1074"
         id="tspan3880-4-1-5-3-0"
         sodipodi:role="line">SOL</tspan></text>
<g
       transform="matrix(2.238674,0,0,2.238674,1023.8977,839.14117)"
       id="g4651"><path
         style="fill:#777777"
         inkscape:connector-curvature="0"
         d="m 33.065,15.548 h 1.438 V 9.471 h 2.563 v -1.13 h -6.563 v 1.13 h 2.563 l -0.001,6.077 0,0 z M 24.351,11.573 V 9.471 h 2.482 c 0.755,0 1.226,0.292 1.226,1.039 0,0.808 -0.432,1.063 -1.226,1.063 h -2.482 z m -1.434,3.975 h 1.434 v -2.846 h 2.443 c 1.053,0 1.188,0.727 1.188,1.755 0,0.526 0.068,0.89 0.174,1.091 h 1.552 c -0.281,-0.395 -0.29,-1.199 -0.29,-1.546 0,-1.019 -0.18,-1.766 -0.994,-1.945 v -0.021 c 0.643,-0.211 1.128,-0.797 1.128,-1.737 0,-1.119 -0.563,-1.954 -2.305,-1.954 H 22.92 l -0.003,7.203 0,0 z m -8.885,0 h 1.551 l 0.708,-1.786 h 3.217 l 0.718,1.786 h 1.603 L 18.784,8.341 H 17.08 l -3.048,7.207 z m 2.691,-2.916 1.187,-3.042 1.168,3.042 h -2.355 z m -6.731,2.916 h 1.434 V 9.471 h 2.567 V 8.341 H 7.425 v 1.13 h 2.567 v 6.077 z m -9.805,-5.18 c 0,2.956 5.036,1.4 5.036,3.188 0,0.792 -0.813,1.064 -1.684,1.064 -1.179,0 -1.923,-0.456 -1.963,-1.407 h -1.55 c 0.021,1.516 1.005,2.538 3.469,2.538 1.455,0 3.28,-0.486 3.28,-2.345 0,-3.079 -5.093,-1.454 -5.093,-3.148 0,-0.676 0.632,-0.988 1.589,-0.988 1.196,0 1.676,0.604 1.726,1.161 H 6.548 C 6.363,8.338 4.258,8.139 3.203,8.139 c -1.667,0 -3.016,0.623 -3.016,2.229"
         id="path4637" /><g
         id="g4639"><g
           id="g4641"><path
             style="fill:#777777"
             inkscape:connector-curvature="0"
             d="M 33.217,19.118 H 3.845 C 1.722,19.118 0,20.89 0,23.075 c 0,2.185 1.722,3.957 3.845,3.957 h 29.372 c 2.123,0 3.844,-1.771 3.844,-3.957 0,-2.186 -1.721,-3.957 -3.844,-3.957 z"
             id="path4643" /></g></g></g></g><path
     sodipodi:nodetypes="cc"
     inkscape:connector-curvature="0"
     id="path4141"
     d="m 1331.7071,641.66204 226.7932,0"
     style="fill:none;stroke:#000000;stroke-width:8.22716713;stroke-linecap:butt;stroke-linejoin:miter;stroke-miterlimit:4;stroke-opacity:1;stroke-dasharray:none;marker-start:url(#DotM-1);marker-end:none" /><g
     id="g4938"
     transform="matrix(1.4702528,0,0,1.4702528,325.46677,77.75504)"><rect
       rx="6.9961586"
       ry="6.9961591"
       y="349.10107"
       x="754.55139"
       height="65.565666"
       width="109.87776"
       id="rect3010-1-7-7-7-0-4-1"
       style="fill:#efefef;fill-opacity:1;stroke:#777777;stroke-width:1.25542307;stroke-linejoin:miter;stroke-miterlimit:4;stroke-opacity:1;stroke-dasharray:none" /><text
       sodipodi:linespacing="125%"
       id="text3878-7-6-9-9-9-4-3"
       y="393.79138"
       x="819.32581"
       style="font-size:33.32875061px;font-style:normal;font-weight:normal;line-height:125%;letter-spacing:0px;word-spacing:0px;fill:#000000;fill-opacity:1;stroke:#777777;stroke-width:1.66643715;stroke-miterlimit:4;stroke-opacity:1;stroke-dasharray:none;font-family:Open Sans Light;-inkscape-font-specification:Open Sans Light"
       xml:space="preserve"><tspan
         style="fill:#777777;fill-opacity:1;stroke:#777777;stroke-width:1.66643715;stroke-miterlimit:4;stroke-opacity:1;stroke-dasharray:none"
         y="393.79138"
         x="819.32581"
         id="tspan3880-4-1-5-3-0-6-5"
         sodipodi:role="line">SI</tspan></text>
<g
       transform="matrix(1.4876555,0,0,1.4876956,759.33315,354.31691)"
       id="g4878"><g
         id="g4862"><g
           id="g4864"><path
             style="fill:#777777"
             inkscape:connector-curvature="0"
             d="m 18.914,14.579 -1.682,5.308 h 3.405 l -1.67,-5.308 H 18.914 z M 18.531,3.029 c -8.562,0 -15.501,6.94 -15.501,15.5 0,8.563 6.939,15.502 15.501,15.502 8.562,0 15.499,-6.94 15.499,-15.502 0,-8.559 -6.939,-15.5 -15.499,-15.5 z m 3.696,21.896 -0.919,-2.913 h -4.741 l -0.918,2.913 H 12.914 L 17.56,11.416 h 2.774 l 4.629,13.509 h -2.736 z"
             id="path4866" /></g></g><g
         style="opacity:0"
         id="g4868"><path
           style="fill:#777777"
           inkscape:connector-curvature="0"
           d="M 36.961,0.1 V 36.961 H 0.1 V 0.1 H 36.961 M 37.061,0 H 0 V 37.06 H 37.061 V 0 l 0,0 z"
           id="path4870" /></g></g></g><path
     style="fill:none;stroke:#000000;stroke-width:8.22716713;stroke-linecap:butt;stroke-linejoin:miter;stroke-miterlimit:4;stroke-opacity:1;stroke-dasharray:none;marker-start:url(#DotM-1);marker-end:none"
     d="m 1200.1716,635.62876 0,166.79319 101.9663,0"
     id="path4143"
     inkscape:connector-curvature="0"
     sodipodi:nodetypes="ccc" /><g
     id="g4145"
     transform="translate(22,-32)"><g
       transform="matrix(1.4702528,0,0,1.4702528,-555.53184,124.90581)"
       id="g6606"><rect
         style="fill:#efefef;fill-opacity:1;stroke:#777777;stroke-width:1.25542307;stroke-linejoin:miter;stroke-miterlimit:4;stroke-opacity:1;stroke-dasharray:none"
         id="rect3010-1-7-7-7-0-4"
         width="109.87776"
         height="65.565666"
         x="1224.1367"
         y="444.44101"
         ry="6.9961591"
         rx="6.9961586" /><text
         xml:space="preserve"
         style="font-size:34.36824799px;font-style:normal;font-weight:normal;line-height:125%;letter-spacing:0px;word-spacing:0px;fill:#000000;fill-opacity:1;stroke:#777777;stroke-width:1.71841216;stroke-miterlimit:4;stroke-opacity:1;stroke-dasharray:none;font-family:Open Sans Light;-inkscape-font-specification:Open Sans Light"
         x="1284.2886"
         y="489.45825"
         id="text3878-7-6-9-9-9-4"
         sodipodi:linespacing="125%"><tspan
           sodipodi:role="line"
           id="tspan3880-4-1-5-3-0-6"
           x="1284.2886"
           y="489.45825"
           style="fill:#777777;fill-opacity:1;stroke:#777777;stroke-width:1.71841216;stroke-miterlimit:4;stroke-opacity:1;stroke-dasharray:none">LA</tspan></text>
<g
         id="g4776"
         transform="matrix(1.4876508,0,0,1.4876508,1229.295,449.65772)"><g
           id="g4760"><g
             id="g4762"><path
               id="path4764"
               d="m 19.47,18.949 h -2.699 v 3.887 h 2.496 c 0.717,0 1.267,-0.154 1.644,-0.467 0.378,-0.313 0.563,-0.772 0.563,-1.385 0,-0.659 -0.16,-1.165 -0.48,-1.513 -0.323,-0.347 -0.831,-0.522 -1.524,-0.522 z m 0.919,-2.319 c 0.39,-0.297 0.585,-0.729 0.585,-1.299 0,-0.625 -0.197,-1.086 -0.59,-1.383 -0.393,-0.297 -0.979,-0.445 -1.758,-0.445 h -1.855 v 3.572 h 1.948 c 0.723,0 1.28,-0.148 1.67,-0.445 z M 18.53,3.031 c -8.561,0 -15.5,6.938 -15.5,15.5 0,8.56 6.939,15.5 15.5,15.5 8.563,0 15.5,-6.939 15.5,-15.5 0,-8.562 -6.939,-15.5 -15.5,-15.5 z m 4.364,20.896 c -0.854,0.665 -2.063,0.997 -3.627,0.997 H 14.062 V 11.416 h 4.564 c 1.59,0 2.83,0.31 3.721,0.929 0.891,0.617 1.336,1.543 1.336,2.773 0,0.625 -0.166,1.184 -0.496,1.674 -0.332,0.492 -0.813,0.86 -1.441,1.108 0.811,0.174 1.418,0.544 1.821,1.113 0.405,0.568 0.607,1.229 0.607,1.977 0,1.293 -0.427,2.272 -1.28,2.937 z"
               inkscape:connector-curvature="0"
               style="fill:#777777" /></g></g><g
           id="g4766"
           style="opacity:0"><path
             id="path4768"
             d="M 36.961,0.1 V 36.961 H 0.1 V 0.1 H 36.961 M 37.061,0 H 0 V 37.06 H 37.061 V 0 l 0,0 z"
             inkscape:connector-curvature="0"
             style="fill:#777777" /></g></g></g></g></svg>