solid OpenSCAD_Model
  facet normal -1 0 0
    outer loop
      vertex -15.5 20 -10
      vertex -15.5 9.5 -6
      vertex -15.5 20 10
    endloop
  endfacet
  facet normal -1 0 0
    outer loop
      vertex -15.5 20 -10
      vertex -15.5 -9.5 -6
      vertex -15.5 9.5 -6
    endloop
  endfacet
  facet normal -1 -0 0
    outer loop
      vertex -15.5 -9.5 -6
      vertex -15.5 -20 -10
      vertex -15.5 -9.5 6
    endloop
  endfacet
  facet normal -1 0 0
    outer loop
      vertex -15.5 -20 -10
      vertex -15.5 -9.5 -6
      vertex -15.5 20 -10
    endloop
  endfacet
  facet normal -1 0 0
    outer loop
      vertex -15.5 9.5 6
      vertex -15.5 20 10
      vertex -15.5 9.5 -6
    endloop
  endfacet
  facet normal -1 0 0
    outer loop
      vertex -15.5 -9.5 6
      vertex -15.5 20 10
      vertex -15.5 9.5 6
    endloop
  endfacet
  facet normal -1 0 0
    outer loop
      vertex -15.5 -9.5 6
      vertex -15.5 -20 10
      vertex -15.5 20 10
    endloop
  endfacet
  facet normal -1 0 0
    outer loop
      vertex -15.5 -20 10
      vertex -15.5 -9.5 6
      vertex -15.5 -20 -10
    endloop
  endfacet
  facet normal 0 0 1
    outer loop
      vertex 15.5 20 10
      vertex 14 18.5 10
      vertex 15.5 -20 10
    endloop
  endfacet
  facet normal 0 0 1
    outer loop
      vertex 15.5 20 10
      vertex -14 18.5 10
      vertex 14 18.5 10
    endloop
  endfacet
  facet normal 0 0 1
    outer loop
      vertex -14 18.5 10
      vertex -15.5 20 10
      vertex -14 -18.5 10
    endloop
  endfacet
  facet normal -0 0 1
    outer loop
      vertex -15.5 20 10
      vertex -14 18.5 10
      vertex 15.5 20 10
    endloop
  endfacet
  facet normal -0 0 1
    outer loop
      vertex 14 -18.5 10
      vertex 15.5 -20 10
      vertex 14 18.5 10
    endloop
  endfacet
  facet normal -0 0 1
    outer loop
      vertex -14 -18.5 10
      vertex 15.5 -20 10
      vertex 14 -18.5 10
    endloop
  endfacet
  facet normal 0 0 1
    outer loop
      vertex -14 -18.5 10
      vertex -15.5 -20 10
      vertex 15.5 -20 10
    endloop
  endfacet
  facet normal 0 0 1
    outer loop
      vertex -15.5 -20 10
      vertex -14 -18.5 10
      vertex -15.5 20 10
    endloop
  endfacet
  facet normal 1 0 0
    outer loop
      vertex 15.5 20 10
      vertex 15.5 14 6
      vertex 15.5 20 -10
    endloop
  endfacet
  facet normal 1 0 0
    outer loop
      vertex 15.5 20 10
      vertex 15.5 -14 6
      vertex 15.5 14 6
    endloop
  endfacet
  facet normal 1 0 0
    outer loop
      vertex 15.5 -14 6
      vertex 15.5 -20 10
      vertex 15.5 -14 -6
    endloop
  endfacet
  facet normal 1 -0 0
    outer loop
      vertex 15.5 -20 10
      vertex 15.5 -14 6
      vertex 15.5 20 10
    endloop
  endfacet
  facet normal 1 -0 0
    outer loop
      vertex 15.5 14 -6
      vertex 15.5 20 -10
      vertex 15.5 14 6
    endloop
  endfacet
  facet normal 1 -0 0
    outer loop
      vertex 15.5 -14 -6
      vertex 15.5 20 -10
      vertex 15.5 14 -6
    endloop
  endfacet
  facet normal 1 0 0
    outer loop
      vertex 15.5 -14 -6
      vertex 15.5 -20 -10
      vertex 15.5 20 -10
    endloop
  endfacet
  facet normal 1 0 0
    outer loop
      vertex 15.5 -20 -10
      vertex 15.5 -14 -6
      vertex 15.5 -20 10
    endloop
  endfacet
  facet normal 0 1 -0
    outer loop
      vertex 15.5 20 -10
      vertex -15.5 20 10
      vertex 15.5 20 10
    endloop
  endfacet
  facet normal 0 1 0
    outer loop
      vertex -15.5 20 10
      vertex 15.5 20 -10
      vertex -15.5 20 -10
    endloop
  endfacet
  facet normal 0 0 -1
    outer loop
      vertex -15.5 -20 -10
      vertex 15.5 20 -10
      vertex 15.5 -20 -10
    endloop
  endfacet
  facet normal -0 0 -1
    outer loop
      vertex 15.5 20 -10
      vertex -15.5 -20 -10
      vertex -15.5 20 -10
    endloop
  endfacet
  facet normal 0 -1 0
    outer loop
      vertex -15.5 -20 -10
      vertex 15.5 -20 10
      vertex -15.5 -20 10
    endloop
  endfacet
  facet normal 0 -1 -0
    outer loop
      vertex 15.5 -20 10
      vertex -15.5 -20 -10
      vertex 15.5 -20 -10
    endloop
  endfacet
  facet normal 1 0 0
    outer loop
      vertex -14 18.5 10
      vertex -14 9.5 6
      vertex -14 18.5 -8
    endloop
  endfacet
  facet normal 1 0 0
    outer loop
      vertex -14 18.5 10
      vertex -14 -9.5 6
      vertex -14 9.5 6
    endloop
  endfacet
  facet normal 1 0 0
    outer loop
      vertex -14 -18.5 -8
      vertex -14 -9.5 6
      vertex -14 -18.5 10
    endloop
  endfacet
  facet normal 1 -0 0
    outer loop
      vertex -14 -18.5 10
      vertex -14 -9.5 6
      vertex -14 18.5 10
    endloop
  endfacet
  facet normal 1 -0 0
    outer loop
      vertex -14 9.5 -6
      vertex -14 18.5 -8
      vertex -14 9.5 6
    endloop
  endfacet
  facet normal 1 -0 0
    outer loop
      vertex -14 -9.5 -6
      vertex -14 18.5 -8
      vertex -14 9.5 -6
    endloop
  endfacet
  facet normal 1 0 0
    outer loop
      vertex -14 -9.5 -6
      vertex -14 -18.5 -8
      vertex -14 18.5 -8
    endloop
  endfacet
  facet normal 1 0 0
    outer loop
      vertex -14 -9.5 6
      vertex -14 -18.5 -8
      vertex -14 -9.5 -6
    endloop
  endfacet
  facet normal -1 0 0
    outer loop
      vertex 14 14 6
      vertex 14 18.5 -8
      vertex 14 14 -6
    endloop
  endfacet
  facet normal -1 0 0
    outer loop
      vertex 14 18.5 -8
      vertex 14 -14 -6
      vertex 14 14 -6
    endloop
  endfacet
  facet normal -1 -0 0
    outer loop
      vertex 14 -14 -6
      vertex 14 -18.5 -8
      vertex 14 -14 6
    endloop
  endfacet
  facet normal -1 0 0
    outer loop
      vertex 14 -18.5 -8
      vertex 14 -14 -6
      vertex 14 18.5 -8
    endloop
  endfacet
  facet normal -1 0 0
    outer loop
      vertex 14 18.5 -8
      vertex 14 14 6
      vertex 14 18.5 10
    endloop
  endfacet
  facet normal -1 0 0
    outer loop
      vertex 14 -14 6
      vertex 14 18.5 10
      vertex 14 14 6
    endloop
  endfacet
  facet normal -1 0 0
    outer loop
      vertex 14 -14 6
      vertex 14 -18.5 10
      vertex 14 18.5 10
    endloop
  endfacet
  facet normal -1 0 0
    outer loop
      vertex 14 -18.5 10
      vertex 14 -14 6
      vertex 14 -18.5 -8
    endloop
  endfacet
  facet normal 0 -1 0
    outer loop
      vertex -14 18.5 -8
      vertex 14 18.5 10
      vertex -14 18.5 10
    endloop
  endfacet
  facet normal 0 -1 -0
    outer loop
      vertex 14 18.5 10
      vertex -14 18.5 -8
      vertex 14 18.5 -8
    endloop
  endfacet
  facet normal -0 0 1
    outer loop
      vertex -14 18.5 -8
      vertex 14 -18.5 -8
      vertex 14 18.5 -8
    endloop
  endfacet
  facet normal 0 0 1
    outer loop
      vertex 14 -18.5 -8
      vertex -14 18.5 -8
      vertex -14 -18.5 -8
    endloop
  endfacet
  facet normal 0 1 -0
    outer loop
      vertex 14 -18.5 -8
      vertex -14 -18.5 10
      vertex 14 -18.5 10
    endloop
  endfacet
  facet normal 0 1 0
    outer loop
      vertex -14 -18.5 10
      vertex 14 -18.5 -8
      vertex -14 -18.5 -8
    endloop
  endfacet
  facet normal 0 0 -1
    outer loop
      vertex 14 -14 6
      vertex 15.5 14 6
      vertex 15.5 -14 6
    endloop
  endfacet
  facet normal -0 0 -1
    outer loop
      vertex 15.5 14 6
      vertex 14 -14 6
      vertex 14 14 6
    endloop
  endfacet
  facet normal 0 -1 0
    outer loop
      vertex 14 14 -6
      vertex 15.5 14 6
      vertex 14 14 6
    endloop
  endfacet
  facet normal 0 -1 -0
    outer loop
      vertex 15.5 14 6
      vertex 14 14 -6
      vertex 15.5 14 -6
    endloop
  endfacet
  facet normal -0 0 1
    outer loop
      vertex 14 14 -6
      vertex 15.5 -14 -6
      vertex 15.5 14 -6
    endloop
  endfacet
  facet normal 0 0 1
    outer loop
      vertex 15.5 -14 -6
      vertex 14 14 -6
      vertex 14 -14 -6
    endloop
  endfacet
  facet normal 0 1 -0
    outer loop
      vertex 15.5 -14 -6
      vertex 14 -14 6
      vertex 15.5 -14 6
    endloop
  endfacet
  facet normal 0 1 0
    outer loop
      vertex 14 -14 6
      vertex 15.5 -14 -6
      vertex 14 -14 -6
    endloop
  endfacet
  facet normal 0 0 -1
    outer loop
      vertex -15.5 -9.5 6
      vertex -14 9.5 6
      vertex -14 -9.5 6
    endloop
  endfacet
  facet normal -0 0 -1
    outer loop
      vertex -14 9.5 6
      vertex -15.5 -9.5 6
      vertex -15.5 9.5 6
    endloop
  endfacet
  facet normal 0 -1 0
    outer loop
      vertex -15.5 9.5 -6
      vertex -14 9.5 6
      vertex -15.5 9.5 6
    endloop
  endfacet
  facet normal 0 -1 -0
    outer loop
      vertex -14 9.5 6
      vertex -15.5 9.5 -6
      vertex -14 9.5 -6
    endloop
  endfacet
  facet normal -0 0 1
    outer loop
      vertex -15.5 9.5 -6
      vertex -14 -9.5 -6
      vertex -14 9.5 -6
    endloop
  endfacet
  facet normal 0 0 1
    outer loop
      vertex -14 -9.5 -6
      vertex -15.5 9.5 -6
      vertex -15.5 -9.5 -6
    endloop
  endfacet
  facet normal 0 1 -0
    outer loop
      vertex -14 -9.5 -6
      vertex -15.5 -9.5 6
      vertex -14 -9.5 6
    endloop
  endfacet
  facet normal 0 1 0
    outer loop
      vertex -15.5 -9.5 6
      vertex -14 -9.5 -6
      vertex -15.5 -9.5 -6
    endloop
  endfacet
  facet normal -1 0 0
    outer loop
      vertex 36.5 -18 1
      vertex 36.5 18 3
      vertex 36.5 18 1
    endloop
  endfacet
  facet normal -1 -0 0
    outer loop
      vertex 36.5 18 3
      vertex 36.5 -18 1
      vertex 36.5 -18 3
    endloop
  endfacet
  facet normal -0 0 1
    outer loop
      vertex 36.5 18 3
      vertex 63.5 -18 3
      vertex 63.5 18 3
    endloop
  endfacet
  facet normal 0 0 1
    outer loop
      vertex 63.5 -18 3
      vertex 36.5 18 3
      vertex 36.5 -18 3
    endloop
  endfacet
  facet normal 1 -0 0
    outer loop
      vertex 63.5 -18 3
      vertex 63.5 18 1
      vertex 63.5 18 3
    endloop
  endfacet
  facet normal 1 0 0
    outer loop
      vertex 63.5 18 1
      vertex 63.5 -18 3
      vertex 63.5 -18 1
    endloop
  endfacet
  facet normal 0 0 1
    outer loop
      vertex 65.5 20 1
      vertex 63.5 18 1
      vertex 65.5 -20 1
    endloop
  endfacet
  facet normal 0 0 1
    outer loop
      vertex 65.5 20 1
      vertex 36.5 18 1
      vertex 63.5 18 1
    endloop
  endfacet
  facet normal 0 0 1
    outer loop
      vertex 36.5 18 1
      vertex 34.5 20 1
      vertex 36.5 -18 1
    endloop
  endfacet
  facet normal -0 0 1
    outer loop
      vertex 34.5 20 1
      vertex 36.5 18 1
      vertex 65.5 20 1
    endloop
  endfacet
  facet normal -0 0 1
    outer loop
      vertex 63.5 -18 1
      vertex 65.5 -20 1
      vertex 63.5 18 1
    endloop
  endfacet
  facet normal -0 0 1
    outer loop
      vertex 36.5 -18 1
      vertex 65.5 -20 1
      vertex 63.5 -18 1
    endloop
  endfacet
  facet normal 0 0 1
    outer loop
      vertex 36.5 -18 1
      vertex 34.5 -20 1
      vertex 65.5 -20 1
    endloop
  endfacet
  facet normal 0 0 1
    outer loop
      vertex 34.5 -20 1
      vertex 36.5 -18 1
      vertex 34.5 20 1
    endloop
  endfacet
  facet normal 0 -1 0
    outer loop
      vertex 36.5 -18 1
      vertex 63.5 -18 3
      vertex 36.5 -18 3
    endloop
  endfacet
  facet normal 0 -1 -0
    outer loop
      vertex 63.5 -18 3
      vertex 36.5 -18 1
      vertex 63.5 -18 1
    endloop
  endfacet
  facet normal 0 1 -0
    outer loop
      vertex 63.5 18 1
      vertex 36.5 18 3
      vertex 63.5 18 3
    endloop
  endfacet
  facet normal 0 1 0
    outer loop
      vertex 36.5 18 3
      vertex 63.5 18 1
      vertex 36.5 18 1
    endloop
  endfacet
  facet normal -1 0 0
    outer loop
      vertex 34.5 -20 -1
      vertex 34.5 20 1
      vertex 34.5 20 -1
    endloop
  endfacet
  facet normal -1 -0 0
    outer loop
      vertex 34.5 20 1
      vertex 34.5 -20 -1
      vertex 34.5 -20 1
    endloop
  endfacet
  facet normal 1 -0 0
    outer loop
      vertex 65.5 -20 1
      vertex 65.5 20 -1
      vertex 65.5 20 1
    endloop
  endfacet
  facet normal 1 0 0
    outer loop
      vertex 65.5 20 -1
      vertex 65.5 -20 1
      vertex 65.5 -20 -1
    endloop
  endfacet
  facet normal 0 0 -1
    outer loop
      vertex 34.5 -20 -1
      vertex 65.5 20 -1
      vertex 65.5 -20 -1
    endloop
  endfacet
  facet normal -0 0 -1
    outer loop
      vertex 65.5 20 -1
      vertex 34.5 -20 -1
      vertex 34.5 20 -1
    endloop
  endfacet
  facet normal 0 -1 0
    outer loop
      vertex 34.5 -20 -1
      vertex 65.5 -20 1
      vertex 34.5 -20 1
    endloop
  endfacet
  facet normal 0 -1 -0
    outer loop
      vertex 65.5 -20 1
      vertex 34.5 -20 -1
      vertex 65.5 -20 -1
    endloop
  endfacet
  facet normal 0 1 -0
    outer loop
      vertex 65.5 20 -1
      vertex 34.5 20 1
      vertex 65.5 20 1
    endloop
  endfacet
  facet normal 0 1 0
    outer loop
      vertex 34.5 20 1
      vertex 65.5 20 -1
      vertex 34.5 20 -1
    endloop
  endfacet
endsolid OpenSCAD_Model
